<?xml version="1.0" encoding="utf-8"?>
<svg viewBox="126.22 229.001 159.4545 33.6" width="159.4545" height="33.6"
    xmlns="http://www.w3.org/2000/svg" xmlns:bx="https://boxy-svg.com">
    <defs>
        <linearGradient gradientUnits="userSpaceOnUse" x1="141.22" y1="229.678" x2="141.22"
            y2="259.678" id="gradient-1">
            <stop stop-color="#877EFF" />
            <stop offset="0.646" style="stop-color: rgb(16, 0, 235);" />
            <stop offset="1" stop-color="#3121FF" />
        </linearGradient>
        <style bx:fonts="Albert Sans">
            @import
            url(https://fonts.googleapis.com/css2?family=Albert+Sans%3Aital%2Cwght%400%2C100..900%3B1%2C100..900&amp;display=swap);</style>
    </defs>
    <g>
        <path fill-rule="evenodd" clip-rule="evenodd"
            d="M 154.054 244.678 C 154.054 251.765 148.308 257.511 141.22 257.511 C 134.133 257.511 128.387 251.765 128.387 244.678 C 128.387 237.59 134.133 231.844 141.22 231.844 C 148.308 231.844 154.054 237.59 154.054 244.678 Z M 156.22 244.678 C 156.22 252.962 149.505 259.678 141.22 259.678 C 132.936 259.678 126.22 252.962 126.22 244.678 C 126.22 236.393 132.936 229.678 141.22 229.678 C 149.505 229.678 156.22 236.393 156.22 244.678 Z M 149.496 237.953 C 149.496 238.81 148.801 239.505 147.944 239.505 C 147.087 239.505 146.393 238.81 146.393 237.953 C 146.393 237.096 147.087 236.402 147.944 236.402 C 148.801 236.402 149.496 237.096 149.496 237.953 Z M 136.708 245.887 C 137.376 248.378 139.937 249.857 142.429 249.19 C 144.921 248.522 146.4 245.96 145.732 243.469 C 145.064 240.977 142.503 239.498 140.011 240.166 C 137.519 240.833 136.04 243.395 136.708 245.887 Z M 134.615 246.447 C 135.593 250.095 139.342 252.26 142.99 251.282 C 146.638 250.305 148.802 246.556 147.825 242.908 C 146.848 239.26 143.098 237.095 139.45 238.073 C 135.803 239.05 133.638 242.8 134.615 246.447 Z"
            style="fill: url('#gradient-1');" />
        <text
            style="fill: rgb(249, 249, 249); font-family: 'Albert Sans'; font-size: 28px; font-weight: 600; white-space: pre;"
            x="161.262" y="255.401">LensLoop</text>
        <g transform="matrix(0.788229, 0, 0, 0.788229, 24.345253, 81.838685)">
            <circle style="fill: rgb(249, 249, 249);" cx="156.781" cy="198.114" r="1.903" />
        </g>
    </g>
</svg>